<?xml version="1.0" encoding="UTF-8" standalone="no"?><svg xmlns="http://www.w3.org/2000/svg" xmlns:xlink="http://www.w3.org/1999/xlink" contentStyleType="text/css" height="585px" preserveAspectRatio="none" style="width:2158px;height:585px;background:#FFFFFF;" version="1.1" viewBox="0 0 2158 585" width="2158px" zoomAndPan="magnify"><defs/><g><!--MD5=[5cbff45808aa0b349d270201c19fb1ef]
cluster Lib--><g id="cluster_Lib"><path d="M8.5,6.532 L30.5,6.532 A3.75,3.75 0 0 1 33,9.032 L40,32.8039 L2148.5,32.8039 A2.5,2.5 0 0 1 2151,35.3039 L2151,576.032 A2.5,2.5 0 0 1 2148.5,578.532 L8.5,578.532 A2.5,2.5 0 0 1 6,576.032 L6,9.032 A2.5,2.5 0 0 1 8.5,6.532 " fill="none" style="stroke:#000000;stroke-width:1.5;"/><line style="stroke:#000000;stroke-width:1.5;" x1="6" x2="40" y1="32.8039" y2="32.8039"/><text fill="#000000" font-family="sans-serif" font-size="14" font-weight="bold" lengthAdjust="spacing" textLength="21" x="10" y="24.7719">Lib</text></g><!--MD5=[0bfb5380cccfad0eacf1ae50551cb7df]
cluster commons--><g id="cluster_commons"><path d="M1785.5,100.532 L1855.5,100.532 A3.75,3.75 0 0 1 1858,103.032 L1865,126.8039 L2124.5,126.8039 A2.5,2.5 0 0 1 2127,129.3039 L2127,313.032 A2.5,2.5 0 0 1 2124.5,315.532 L1785.5,315.532 A2.5,2.5 0 0 1 1783,313.032 L1783,103.032 A2.5,2.5 0 0 1 1785.5,100.532 " fill="none" style="stroke:#000000;stroke-width:1.5;"/><line style="stroke:#000000;stroke-width:1.5;" x1="1783" x2="1865" y1="126.8039" y2="126.8039"/><text fill="#000000" font-family="sans-serif" font-size="14" font-weight="bold" lengthAdjust="spacing" textLength="69" x="1787" y="118.7719">commons</text></g><!--MD5=[43f17f8cff4b58b55d5ab50e8fc9ac0d]
cluster packet.proto--><g id="cluster_packet.proto"><path d="M32.5,53.532 L123.5,53.532 A3.75,3.75 0 0 1 126,56.032 L133,79.8039 L1756.5,79.8039 A2.5,2.5 0 0 1 1759,82.3039 L1759,552.032 A2.5,2.5 0 0 1 1756.5,554.532 L32.5,554.532 A2.5,2.5 0 0 1 30,552.032 L30,56.032 A2.5,2.5 0 0 1 32.5,53.532 " fill="none" style="stroke:#000000;stroke-width:1.5;"/><line style="stroke:#000000;stroke-width:1.5;" x1="30" x2="133" y1="79.8039" y2="79.8039"/><text fill="#000000" font-family="sans-serif" font-size="14" font-weight="bold" lengthAdjust="spacing" textLength="90" x="34" y="71.7719">packet.proto</text></g><!--MD5=[5a827bfe5ee405655bb59ec72ca4c7e5]
cluster auth (cli=>srv)--><g id="cluster_auth (cli=&gt;srv)"><path d="M1221.5,100.532 L1319.5,100.532 A3.75,3.75 0 0 1 1322,103.032 L1329,126.8039 L1719.5,126.8039 A2.5,2.5 0 0 1 1722,129.3039 L1722,442.032 A2.5,2.5 0 0 1 1719.5,444.532 L1221.5,444.532 A2.5,2.5 0 0 1 1219,442.032 L1219,103.032 A2.5,2.5 0 0 1 1221.5,100.532 " fill="none" style="stroke:#000000;stroke-width:1.5;"/><line style="stroke:#000000;stroke-width:1.5;" x1="1219" x2="1329" y1="126.8039" y2="126.8039"/><text fill="#000000" font-family="sans-serif" font-size="14" font-weight="bold" lengthAdjust="spacing" textLength="97" x="1223" y="118.7719">auth (cli=&gt;srv)</text></g><!--MD5=[9b0b845df2484fd985618e6fa46ca30e]
cluster get users (cli=>srv)--><g id="cluster_get users (cli=&gt;srv)"><path d="M982.5,210.532 L1110.5,210.532 A3.75,3.75 0 0 1 1113,213.032 L1120,236.8039 L1192.5,236.8039 A2.5,2.5 0 0 1 1195,239.3039 L1195,442.032 A2.5,2.5 0 0 1 1192.5,444.532 L982.5,444.532 A2.5,2.5 0 0 1 980,442.032 L980,213.032 A2.5,2.5 0 0 1 982.5,210.532 " fill="none" style="stroke:#000000;stroke-width:1.5;"/><line style="stroke:#000000;stroke-width:1.5;" x1="980" x2="1120" y1="236.8039" y2="236.8039"/><text fill="#000000" font-family="sans-serif" font-size="14" font-weight="bold" lengthAdjust="spacing" textLength="127" x="984" y="228.7719">get users (cli=&gt;srv)</text></g><!--MD5=[e792f100ff1c175d4c31f137540e09f7]
cluster send message (cli<=>srv)--><g id="cluster_send message (cli&lt;=&gt;srv)"><path d="M773.5,210.532 L943.5,210.532 A3.75,3.75 0 0 1 946,213.032 L953,236.8039 L953.5,236.8039 A2.5,2.5 0 0 1 956,239.3039 L956,442.032 A2.5,2.5 0 0 1 953.5,444.532 L773.5,444.532 A2.5,2.5 0 0 1 771,442.032 L771,213.032 A2.5,2.5 0 0 1 773.5,210.532 " fill="none" style="stroke:#000000;stroke-width:1.5;"/><line style="stroke:#000000;stroke-width:1.5;" x1="771" x2="953" y1="236.8039" y2="236.8039"/><text fill="#000000" font-family="sans-serif" font-size="14" font-weight="bold" lengthAdjust="spacing" textLength="169" x="775" y="228.7719">send message (cli&lt;=&gt;srv)</text></g><!--MD5=[29f29f57f7ddb8e9f63078cdd2e95083]
cluster push notify (cli<=srv)--><g id="cluster_push notify (cli&lt;=srv)"><path d="M492.5,100.532 L636.5,100.532 A3.75,3.75 0 0 1 639,103.032 L646,126.8039 L744.5,126.8039 A2.5,2.5 0 0 1 747,129.3039 L747,442.032 A2.5,2.5 0 0 1 744.5,444.532 L492.5,444.532 A2.5,2.5 0 0 1 490,442.032 L490,103.032 A2.5,2.5 0 0 1 492.5,100.532 " fill="none" style="stroke:#000000;stroke-width:1.5;"/><line style="stroke:#000000;stroke-width:1.5;" x1="490" x2="646" y1="126.8039" y2="126.8039"/><text fill="#000000" font-family="sans-serif" font-size="14" font-weight="bold" lengthAdjust="spacing" textLength="143" x="494" y="118.7719">push notify (cli&lt;=srv)</text></g><!--MD5=[519faaa7fcff2bb8e05bb68228423ed4]
cluster ping/pong (cli<=>srv)--><g id="cluster_ping/pong (cli&lt;=&gt;srv)"><path d="M309.5,210.532 L453.5,210.532 A3.75,3.75 0 0 1 456,213.032 L463,236.8039 L463.5,236.8039 A2.5,2.5 0 0 1 466,239.3039 L466,442.032 A2.5,2.5 0 0 1 463.5,444.532 L309.5,444.532 A2.5,2.5 0 0 1 307,442.032 L307,213.032 A2.5,2.5 0 0 1 309.5,210.532 " fill="none" style="stroke:#000000;stroke-width:1.5;"/><line style="stroke:#000000;stroke-width:1.5;" x1="307" x2="463" y1="236.8039" y2="236.8039"/><text fill="#000000" font-family="sans-serif" font-size="14" font-weight="bold" lengthAdjust="spacing" textLength="143" x="311" y="228.7719">ping/pong (cli&lt;=&gt;srv)</text></g><!--MD5=[39509f3f5015f7b901b4e76c8db20c34]
cluster error (cli<=srv)--><g id="cluster_error (cli&lt;=srv)"><path d="M169.5,339.532 L270.5,339.532 A3.75,3.75 0 0 1 273,342.032 L280,365.8039 L280.5,365.8039 A2.5,2.5 0 0 1 283,368.3039 L283,442.032 A2.5,2.5 0 0 1 280.5,444.532 L169.5,444.532 A2.5,2.5 0 0 1 167,442.032 L167,342.032 A2.5,2.5 0 0 1 169.5,339.532 " fill="none" style="stroke:#000000;stroke-width:1.5;"/><line style="stroke:#000000;stroke-width:1.5;" x1="167" x2="280" y1="365.8039" y2="365.8039"/><text fill="#000000" font-family="sans-serif" font-size="14" font-weight="bold" lengthAdjust="spacing" textLength="100" x="171" y="357.7719">error (cli&lt;=srv)</text></g><!--MD5=[ef23eb9e0a26e42c41ea6907e9b42363]
entity codec--><g id="elem_codec"><rect fill="#F1F1F1" height="50.2719" rx="2.5" ry="2.5" style="stroke:#181818;stroke-width:0.5;" width="79" x="1798.5" y="139.532"/><rect fill="#F1F1F1" height="10" style="stroke:#181818;stroke-width:0.5;" width="15" x="1857.5" y="144.532"/><rect fill="#F1F1F1" height="2" style="stroke:#181818;stroke-width:0.5;" width="4" x="1855.5" y="146.532"/><rect fill="#F1F1F1" height="2" style="stroke:#181818;stroke-width:0.5;" width="4" x="1855.5" y="150.532"/><text fill="#000000" font-family="sans-serif" font-size="14" lengthAdjust="spacing" textLength="39" x="1813.5" y="175.7719">codec</text></g><!--MD5=[cd192bd804cbc0e2dd23836b5758edf3]
entity crypt--><g id="elem_crypt"><rect fill="#F1F1F1" height="50.2719" rx="2.5" ry="2.5" style="stroke:#181818;stroke-width:0.5;" width="73" x="1912.5" y="139.532"/><rect fill="#F1F1F1" height="10" style="stroke:#181818;stroke-width:0.5;" width="15" x="1965.5" y="144.532"/><rect fill="#F1F1F1" height="2" style="stroke:#181818;stroke-width:0.5;" width="4" x="1963.5" y="146.532"/><rect fill="#F1F1F1" height="2" style="stroke:#181818;stroke-width:0.5;" width="4" x="1963.5" y="150.532"/><text fill="#000000" font-family="sans-serif" font-size="14" lengthAdjust="spacing" textLength="33" x="1927.5" y="175.7719">crypt</text></g><!--MD5=[160fb1f893cbb6be174a6c60b5902d03]
entity errcode--><g id="elem_errcode"><rect fill="#F1F1F1" height="50.2719" rx="2.5" ry="2.5" style="stroke:#181818;stroke-width:0.5;" width="90" x="2021" y="139.532"/><rect fill="#F1F1F1" height="10" style="stroke:#181818;stroke-width:0.5;" width="15" x="2091" y="144.532"/><rect fill="#F1F1F1" height="2" style="stroke:#181818;stroke-width:0.5;" width="4" x="2089" y="146.532"/><rect fill="#F1F1F1" height="2" style="stroke:#181818;stroke-width:0.5;" width="4" x="2089" y="150.532"/><text fill="#000000" font-family="sans-serif" font-size="14" lengthAdjust="spacing" textLength="50" x="2036" y="175.7719">errcode</text></g><!--MD5=[1735c7a0e202424bb7ae0484f285ab88]
entity uitls--><g id="elem_uitls"><rect fill="#F1F1F1" height="50.2719" rx="2.5" ry="2.5" style="stroke:#181818;stroke-width:0.5;" width="69" x="1803.5" y="249.532"/><rect fill="#F1F1F1" height="10" style="stroke:#181818;stroke-width:0.5;" width="15" x="1852.5" y="254.532"/><rect fill="#F1F1F1" height="2" style="stroke:#181818;stroke-width:0.5;" width="4" x="1850.5" y="256.532"/><rect fill="#F1F1F1" height="2" style="stroke:#181818;stroke-width:0.5;" width="4" x="1850.5" y="260.532"/><text fill="#000000" font-family="sans-serif" font-size="14" lengthAdjust="spacing" textLength="29" x="1818.5" y="285.7719">uitls</text></g><!--MD5=[93e97847b1b330667bb0856a6855201b]
entity post--><g id="elem_post"><rect fill="#F1F1F1" height="50.2719" rx="2.5" ry="2.5" style="stroke:#181818;stroke-width:0.5;" width="69" x="1907.5" y="249.532"/><rect fill="#F1F1F1" height="10" style="stroke:#181818;stroke-width:0.5;" width="15" x="1956.5" y="254.532"/><rect fill="#F1F1F1" height="2" style="stroke:#181818;stroke-width:0.5;" width="4" x="1954.5" y="256.532"/><rect fill="#F1F1F1" height="2" style="stroke:#181818;stroke-width:0.5;" width="4" x="1954.5" y="260.532"/><text fill="#000000" font-family="sans-serif" font-size="14" lengthAdjust="spacing" textLength="29" x="1922.5" y="285.7719">post</text></g><!--MD5=[93de1bc13d026ddda01431a3a1f20085]
entity PackKind--><g id="elem_PackKind"><rect fill="#F1F1F1" height="50.2719" rx="2.5" ry="2.5" style="stroke:#181818;stroke-width:0.5;" width="103" x="46.5" y="378.532"/><rect fill="#F1F1F1" height="10" style="stroke:#181818;stroke-width:0.5;" width="15" x="129.5" y="383.532"/><rect fill="#F1F1F1" height="2" style="stroke:#181818;stroke-width:0.5;" width="4" x="127.5" y="385.532"/><rect fill="#F1F1F1" height="2" style="stroke:#181818;stroke-width:0.5;" width="4" x="127.5" y="389.532"/><text fill="#000000" font-family="sans-serif" font-size="14" lengthAdjust="spacing" textLength="63" x="61.5" y="414.7719">PackKind</text></g><!--MD5=[7c5d091f2ba4bb40a958290994bbb8d8]
entity Packet--><g id="elem_Packet"><rect fill="#F1F1F1" height="50.2719" rx="2.5" ry="2.5" style="stroke:#181818;stroke-width:0.5;" width="85" x="1053.5" y="488.532"/><rect fill="#F1F1F1" height="10" style="stroke:#181818;stroke-width:0.5;" width="15" x="1118.5" y="493.532"/><rect fill="#F1F1F1" height="2" style="stroke:#181818;stroke-width:0.5;" width="4" x="1116.5" y="495.532"/><rect fill="#F1F1F1" height="2" style="stroke:#181818;stroke-width:0.5;" width="4" x="1116.5" y="499.532"/><text fill="#000000" font-family="sans-serif" font-size="14" lengthAdjust="spacing" textLength="45" x="1068.5" y="524.7719">Packet</text></g><!--MD5=[39222abbbfd087a4fdab60e627dc976f]
entity Auth--><g id="elem_Auth"><rect fill="#F1F1F1" height="50.2719" rx="2.5" ry="2.5" style="stroke:#181818;stroke-width:0.5;" width="72" x="1360" y="139.532"/><rect fill="#F1F1F1" height="10" style="stroke:#181818;stroke-width:0.5;" width="15" x="1412" y="144.532"/><rect fill="#F1F1F1" height="2" style="stroke:#181818;stroke-width:0.5;" width="4" x="1410" y="146.532"/><rect fill="#F1F1F1" height="2" style="stroke:#181818;stroke-width:0.5;" width="4" x="1410" y="150.532"/><text fill="#000000" font-family="sans-serif" font-size="14" lengthAdjust="spacing" textLength="32" x="1375" y="175.7719">Auth</text></g><!--MD5=[d193f1a4c11c96be3822ab7a501decff]
entity Signup--><g id="elem_Signup"><rect fill="#F1F1F1" height="50.2719" rx="2.5" ry="2.5" style="stroke:#181818;stroke-width:0.5;" width="87" x="1352.5" y="249.532"/><rect fill="#F1F1F1" height="10" style="stroke:#181818;stroke-width:0.5;" width="15" x="1419.5" y="254.532"/><rect fill="#F1F1F1" height="2" style="stroke:#181818;stroke-width:0.5;" width="4" x="1417.5" y="256.532"/><rect fill="#F1F1F1" height="2" style="stroke:#181818;stroke-width:0.5;" width="4" x="1417.5" y="260.532"/><text fill="#000000" font-family="sans-serif" font-size="14" lengthAdjust="spacing" textLength="47" x="1367.5" y="285.7719">Signup</text></g><!--MD5=[5a19745d05fc0d4064b9d4d47d79a8ef]
entity Signin--><g id="elem_Signin"><rect fill="#F1F1F1" height="50.2719" rx="2.5" ry="2.5" style="stroke:#181818;stroke-width:0.5;" width="82" x="1235" y="249.532"/><rect fill="#F1F1F1" height="10" style="stroke:#181818;stroke-width:0.5;" width="15" x="1297" y="254.532"/><rect fill="#F1F1F1" height="2" style="stroke:#181818;stroke-width:0.5;" width="4" x="1295" y="256.532"/><rect fill="#F1F1F1" height="2" style="stroke:#181818;stroke-width:0.5;" width="4" x="1295" y="260.532"/><text fill="#000000" font-family="sans-serif" font-size="14" lengthAdjust="spacing" textLength="42" x="1250" y="285.7719">Signin</text></g><!--MD5=[439fd0432c25c04e35b3ecceb5911b7c]
entity Token--><g id="elem_Token"><rect fill="#F1F1F1" height="50.2719" rx="2.5" ry="2.5" style="stroke:#181818;stroke-width:0.5;" width="81" x="1474.5" y="249.532"/><rect fill="#F1F1F1" height="10" style="stroke:#181818;stroke-width:0.5;" width="15" x="1535.5" y="254.532"/><rect fill="#F1F1F1" height="2" style="stroke:#181818;stroke-width:0.5;" width="4" x="1533.5" y="256.532"/><rect fill="#F1F1F1" height="2" style="stroke:#181818;stroke-width:0.5;" width="4" x="1533.5" y="260.532"/><text fill="#000000" font-family="sans-serif" font-size="14" lengthAdjust="spacing" textLength="41" x="1489.5" y="285.7719">Token</text></g><!--MD5=[982adff97a72cb516592d0315bd42b6e]
entity Signout--><g id="elem_Signout"><rect fill="#F1F1F1" height="50.2719" rx="2.5" ry="2.5" style="stroke:#181818;stroke-width:0.5;" width="91" x="1608.5" y="139.532"/><rect fill="#F1F1F1" height="10" style="stroke:#181818;stroke-width:0.5;" width="15" x="1679.5" y="144.532"/><rect fill="#F1F1F1" height="2" style="stroke:#181818;stroke-width:0.5;" width="4" x="1677.5" y="146.532"/><rect fill="#F1F1F1" height="2" style="stroke:#181818;stroke-width:0.5;" width="4" x="1677.5" y="150.532"/><text fill="#000000" font-family="sans-serif" font-size="14" lengthAdjust="spacing" textLength="51" x="1623.5" y="175.7719">Signout</text></g><!--MD5=[84e63563b0c7bd13897cde62dc3979c0]
entity TokenRes--><g id="elem_TokenRes"><rect fill="#F1F1F1" height="50.2719" rx="2.5" ry="2.5" style="stroke:#181818;stroke-width:0.5;" width="105" x="1235.5" y="378.532"/><rect fill="#F1F1F1" height="10" style="stroke:#181818;stroke-width:0.5;" width="15" x="1320.5" y="383.532"/><rect fill="#F1F1F1" height="2" style="stroke:#181818;stroke-width:0.5;" width="4" x="1318.5" y="385.532"/><rect fill="#F1F1F1" height="2" style="stroke:#181818;stroke-width:0.5;" width="4" x="1318.5" y="389.532"/><text fill="#000000" font-family="sans-serif" font-size="14" lengthAdjust="spacing" textLength="65" x="1250.5" y="414.7719">TokenRes</text></g><!--MD5=[1a77f79563534b952a6c3bd626252f48]
entity SignoutRes--><g id="elem_SignoutRes"><rect fill="#F1F1F1" height="50.2719" rx="2.5" ry="2.5" style="stroke:#181818;stroke-width:0.5;" width="115" x="1590.5" y="249.532"/><rect fill="#F1F1F1" height="10" style="stroke:#181818;stroke-width:0.5;" width="15" x="1685.5" y="254.532"/><rect fill="#F1F1F1" height="2" style="stroke:#181818;stroke-width:0.5;" width="4" x="1683.5" y="256.532"/><rect fill="#F1F1F1" height="2" style="stroke:#181818;stroke-width:0.5;" width="4" x="1683.5" y="260.532"/><text fill="#000000" font-family="sans-serif" font-size="14" lengthAdjust="spacing" textLength="75" x="1605.5" y="285.7719">SignoutRes</text></g><!--MD5=[fee662a292a0353a69bd162820bae93b]
entity User--><g id="elem_User"><rect fill="#F1F1F1" height="50.2719" rx="2.5" ry="2.5" style="stroke:#181818;stroke-width:0.5;" width="70" x="996" y="249.532"/><rect fill="#F1F1F1" height="10" style="stroke:#181818;stroke-width:0.5;" width="15" x="1046" y="254.532"/><rect fill="#F1F1F1" height="2" style="stroke:#181818;stroke-width:0.5;" width="4" x="1044" y="256.532"/><rect fill="#F1F1F1" height="2" style="stroke:#181818;stroke-width:0.5;" width="4" x="1044" y="260.532"/><text fill="#000000" font-family="sans-serif" font-size="14" lengthAdjust="spacing" textLength="30" x="1011" y="285.7719">User</text></g><!--MD5=[a2b8134a2409aede6d5f940d4f4e4cf0]
entity UsersRes--><g id="elem_UsersRes"><rect fill="#F1F1F1" height="50.2719" rx="2.5" ry="2.5" style="stroke:#181818;stroke-width:0.5;" width="101" x="1002.5" y="378.532"/><rect fill="#F1F1F1" height="10" style="stroke:#181818;stroke-width:0.5;" width="15" x="1083.5" y="383.532"/><rect fill="#F1F1F1" height="2" style="stroke:#181818;stroke-width:0.5;" width="4" x="1081.5" y="385.532"/><rect fill="#F1F1F1" height="2" style="stroke:#181818;stroke-width:0.5;" width="4" x="1081.5" y="389.532"/><text fill="#000000" font-family="sans-serif" font-size="14" lengthAdjust="spacing" textLength="61" x="1017.5" y="414.7719">UsersRes</text></g><!--MD5=[feb5939ce823acf5a8245c3205b3c7a1]
entity Users--><g id="elem_Users"><rect fill="#F1F1F1" height="50.2719" rx="2.5" ry="2.5" style="stroke:#181818;stroke-width:0.5;" width="77" x="1101.5" y="249.532"/><rect fill="#F1F1F1" height="10" style="stroke:#181818;stroke-width:0.5;" width="15" x="1158.5" y="254.532"/><rect fill="#F1F1F1" height="2" style="stroke:#181818;stroke-width:0.5;" width="4" x="1156.5" y="256.532"/><rect fill="#F1F1F1" height="2" style="stroke:#181818;stroke-width:0.5;" width="4" x="1156.5" y="260.532"/><text fill="#000000" font-family="sans-serif" font-size="14" lengthAdjust="spacing" textLength="37" x="1116.5" y="285.7719">Users</text></g><!--MD5=[c41d533e981bde705dc6796ca085ef14]
entity MsgKind--><g id="elem_MsgKind"><rect fill="#F1F1F1" height="50.2719" rx="2.5" ry="2.5" style="stroke:#181818;stroke-width:0.5;" width="97" x="843.5" y="249.532"/><rect fill="#F1F1F1" height="10" style="stroke:#181818;stroke-width:0.5;" width="15" x="920.5" y="254.532"/><rect fill="#F1F1F1" height="2" style="stroke:#181818;stroke-width:0.5;" width="4" x="918.5" y="256.532"/><rect fill="#F1F1F1" height="2" style="stroke:#181818;stroke-width:0.5;" width="4" x="918.5" y="260.532"/><text fill="#000000" font-family="sans-serif" font-size="14" lengthAdjust="spacing" textLength="57" x="858.5" y="285.7719">MsgKind</text></g><!--MD5=[d6a3a86b25255705de85e8c850a2e57b]
entity Msg--><g id="elem_Msg"><rect fill="#F1F1F1" height="50.2719" rx="2.5" ry="2.5" style="stroke:#181818;stroke-width:0.5;" width="66" x="866" y="378.532"/><rect fill="#F1F1F1" height="10" style="stroke:#181818;stroke-width:0.5;" width="15" x="912" y="383.532"/><rect fill="#F1F1F1" height="2" style="stroke:#181818;stroke-width:0.5;" width="4" x="910" y="385.532"/><rect fill="#F1F1F1" height="2" style="stroke:#181818;stroke-width:0.5;" width="4" x="910" y="389.532"/><text fill="#000000" font-family="sans-serif" font-size="14" lengthAdjust="spacing" textLength="26" x="881" y="414.7719">Msg</text></g><!--MD5=[3b5f033733f75575c20e288de050e033]
entity PushKind--><g id="elem_PushKind"><rect fill="#F1F1F1" height="50.2719" rx="2.5" ry="2.5" style="stroke:#181818;stroke-width:0.5;" width="105" x="625.5" y="249.532"/><rect fill="#F1F1F1" height="10" style="stroke:#181818;stroke-width:0.5;" width="15" x="710.5" y="254.532"/><rect fill="#F1F1F1" height="2" style="stroke:#181818;stroke-width:0.5;" width="4" x="708.5" y="256.532"/><rect fill="#F1F1F1" height="2" style="stroke:#181818;stroke-width:0.5;" width="4" x="708.5" y="260.532"/><text fill="#000000" font-family="sans-serif" font-size="14" lengthAdjust="spacing" textLength="65" x="640.5" y="285.7719">PushKind</text></g><!--MD5=[36c1109342872520b87a1413d9987e37]
entity Push--><g id="elem_Push"><rect fill="#F1F1F1" height="50.2719" rx="2.5" ry="2.5" style="stroke:#181818;stroke-width:0.5;" width="74" x="641" y="378.532"/><rect fill="#F1F1F1" height="10" style="stroke:#181818;stroke-width:0.5;" width="15" x="695" y="383.532"/><rect fill="#F1F1F1" height="2" style="stroke:#181818;stroke-width:0.5;" width="4" x="693" y="385.532"/><rect fill="#F1F1F1" height="2" style="stroke:#181818;stroke-width:0.5;" width="4" x="693" y="389.532"/><text fill="#000000" font-family="sans-serif" font-size="14" lengthAdjust="spacing" textLength="34" x="656" y="414.7719">Push</text></g><!--MD5=[9dc6a2c019c8b1dd4b0ae677a7566966]
entity OnlineKind--><g id="elem_OnlineKind"><rect fill="#F1F1F1" height="50.2719" rx="2.5" ry="2.5" style="stroke:#181818;stroke-width:0.5;" width="115" x="506.5" y="139.532"/><rect fill="#F1F1F1" height="10" style="stroke:#181818;stroke-width:0.5;" width="15" x="601.5" y="144.532"/><rect fill="#F1F1F1" height="2" style="stroke:#181818;stroke-width:0.5;" width="4" x="599.5" y="146.532"/><rect fill="#F1F1F1" height="2" style="stroke:#181818;stroke-width:0.5;" width="4" x="599.5" y="150.532"/><text fill="#000000" font-family="sans-serif" font-size="14" lengthAdjust="spacing" textLength="75" x="521.5" y="175.7719">OnlineKind</text></g><!--MD5=[5df312b635d04dc028bf787187c3728f]
entity Online--><g id="elem_Online"><rect fill="#F1F1F1" height="50.2719" rx="2.5" ry="2.5" style="stroke:#181818;stroke-width:0.5;" width="84" x="506" y="249.532"/><rect fill="#F1F1F1" height="10" style="stroke:#181818;stroke-width:0.5;" width="15" x="570" y="254.532"/><rect fill="#F1F1F1" height="2" style="stroke:#181818;stroke-width:0.5;" width="4" x="568" y="256.532"/><rect fill="#F1F1F1" height="2" style="stroke:#181818;stroke-width:0.5;" width="4" x="568" y="260.532"/><text fill="#000000" font-family="sans-serif" font-size="14" lengthAdjust="spacing" textLength="44" x="521" y="285.7719">Online</text></g><!--MD5=[834f1d2ba3ce9fc1d3f642edfaab9576]
entity Ping--><g id="elem_Ping"><rect fill="#F1F1F1" height="50.2719" rx="2.5" ry="2.5" style="stroke:#181818;stroke-width:0.5;" width="70" x="366" y="249.532"/><rect fill="#F1F1F1" height="10" style="stroke:#181818;stroke-width:0.5;" width="15" x="416" y="254.532"/><rect fill="#F1F1F1" height="2" style="stroke:#181818;stroke-width:0.5;" width="4" x="414" y="256.532"/><rect fill="#F1F1F1" height="2" style="stroke:#181818;stroke-width:0.5;" width="4" x="414" y="260.532"/><text fill="#000000" font-family="sans-serif" font-size="14" lengthAdjust="spacing" textLength="30" x="381" y="285.7719">Ping</text></g><!--MD5=[25b4a8d7209e1d085dd2520f98da7402]
entity Pong--><g id="elem_Pong"><rect fill="#F1F1F1" height="50.2719" rx="2.5" ry="2.5" style="stroke:#181818;stroke-width:0.5;" width="74" x="363" y="378.532"/><rect fill="#F1F1F1" height="10" style="stroke:#181818;stroke-width:0.5;" width="15" x="417" y="383.532"/><rect fill="#F1F1F1" height="2" style="stroke:#181818;stroke-width:0.5;" width="4" x="415" y="385.532"/><rect fill="#F1F1F1" height="2" style="stroke:#181818;stroke-width:0.5;" width="4" x="415" y="389.532"/><text fill="#000000" font-family="sans-serif" font-size="14" lengthAdjust="spacing" textLength="34" x="378" y="414.7719">Pong</text></g><!--MD5=[81ec31ef5b6a5bf0db8a7044fffa0108]
entity ErrRes--><g id="elem_ErrRes"><rect fill="#F1F1F1" height="50.2719" rx="2.5" ry="2.5" style="stroke:#181818;stroke-width:0.5;" width="82" x="185" y="378.532"/><rect fill="#F1F1F1" height="10" style="stroke:#181818;stroke-width:0.5;" width="15" x="247" y="383.532"/><rect fill="#F1F1F1" height="2" style="stroke:#181818;stroke-width:0.5;" width="4" x="245" y="385.532"/><rect fill="#F1F1F1" height="2" style="stroke:#181818;stroke-width:0.5;" width="4" x="245" y="389.532"/><text fill="#000000" font-family="sans-serif" font-size="14" lengthAdjust="spacing" textLength="42" x="200" y="414.7719">ErrRes</text></g><!--MD5=[3cf19212bf186cf49bd7e22617d47306]
reverse link PackKind to Packet--><g id="link_PackKind_Packet"><path d="M130.31,431.652 C141.82,439.822 155.33,447.862 169,452.532 C335.9,509.612 894.43,512.952 1053.43,512.712 " fill="none" id="PackKind-backto-Packet" style="stroke:#181818;stroke-width:1.0;stroke-dasharray:7.0,7.0;"/><polygon fill="#181818" points="126.17,428.642,131.1067,437.1643,130.2174,431.5778,135.8039,430.6885,126.17,428.642" style="stroke:#181818;stroke-width:1.0;"/></g><!--MD5=[69dd3d049fc76cf0ee04328e533854b9]
reverse link Auth to Signup--><g id="link_Auth_Signup"><path d="M1396,194.922 C1396,212.012 1396,233.272 1396,249.372 " fill="none" id="Auth-backto-Signup" style="stroke:#181818;stroke-width:1.0;stroke-dasharray:7.0,7.0;"/><polygon fill="#181818" points="1396,189.772,1392,198.772,1396,194.772,1400,198.772,1396,189.772" style="stroke:#181818;stroke-width:1.0;"/></g><!--MD5=[2b6e48af47b160dd9a01d28d7b879d35]
reverse link Auth to Signin--><g id="link_Auth_Signin"><path d="M1355.39,187.552 C1348.3,192.112 1341.22,197.172 1335,202.532 C1318.97,216.342 1303.79,234.792 1292.84,249.412 " fill="none" id="Auth-backto-Signin" style="stroke:#181818;stroke-width:1.0;stroke-dasharray:7.0,7.0;"/><polygon fill="#181818" points="1359.79,184.782,1350.0414,186.1836,1355.5564,187.4423,1354.2978,192.9573,1359.79,184.782" style="stroke:#181818;stroke-width:1.0;"/></g><!--MD5=[e0a0edcd7cdf9e45fa604f95d9b90bb3]
reverse link Auth to Token--><g id="link_Auth_Token"><path d="M1436.65,187.512 C1443.73,192.072 1450.81,197.152 1457,202.532 C1472.86,216.312 1487.78,234.762 1498.52,249.392 " fill="none" id="Auth-backto-Token" style="stroke:#181818;stroke-width:1.0;stroke-dasharray:7.0,7.0;"/><polygon fill="#181818" points="1432.25,184.732,1437.7224,192.9206,1436.4771,187.4025,1441.9952,186.1572,1432.25,184.732" style="stroke:#181818;stroke-width:1.0;"/></g><!--MD5=[fd1ac7f980415262c70c021941bc36e4]
reverse link User to UsersRes--><g id="link_User_UsersRes"><path d="M1036.09,304.922 C1039.96,327.232 1045.21,357.542 1048.83,378.432 " fill="none" id="User-backto-UsersRes" style="stroke:#181818;stroke-width:1.0;stroke-dasharray:7.0,7.0;"/><polygon fill="#181818" points="1035.19,299.722,1032.7912,309.2743,1036.0467,304.648,1040.6729,307.9035,1035.19,299.722" style="stroke:#181818;stroke-width:1.0;"/></g><!--MD5=[5fa6a9ecae4a566c6c5361ffc199899d]
link Users to UsersRes--><g id="link_Users_UsersRes"><path d="M1123.43,299.722 C1108.92,320.902 1087.81,351.712 1072.49,374.082 " fill="none" id="Users-to-UsersRes" style="stroke:#181818;stroke-width:1.0;"/><polygon fill="#181818" points="1069.51,378.432,1077.8966,373.2682,1072.336,374.3072,1071.2969,368.7466,1069.51,378.432" style="stroke:#181818;stroke-width:1.0;"/></g><!--MD5=[1a9f7bd421f6887d1bbed8a86657e8f6]
reverse link OnlineKind to Online--><g id="link_OnlineKind_Online"><path d="M559.65,194.922 C557.11,212.012 553.96,233.272 551.58,249.372 " fill="none" id="OnlineKind-backto-Online" style="stroke:#181818;stroke-width:1.0;stroke-dasharray:7.0,7.0;"/><polygon fill="#181818" points="560.41,189.772,555.1403,198.0925,559.6809,194.7185,563.0548,199.2591,560.41,189.772" style="stroke:#181818;stroke-width:1.0;"/></g><!--MD5=[78fd312883fafecb4e9a4808d890b4ac]
reverse link MsgKind to Msg--><g id="link_MsgKind_Msg"><path d="M893.62,304.922 C894.85,327.232 896.52,357.542 897.67,378.432 " fill="none" id="MsgKind-backto-Msg" style="stroke:#181818;stroke-width:1.0;stroke-dasharray:7.0,7.0;"/><polygon fill="#181818" points="893.33,299.722,889.85,308.9355,893.6152,304.7138,897.8369,308.4791,893.33,299.722" style="stroke:#181818;stroke-width:1.0;"/></g><!--MD5=[7bb3a56b7ee37ed7f9f69c70fd1cc488]
reverse link PushKind to Push--><g id="link_PushKind_Push"><path d="M678,304.922 C678,327.232 678,357.542 678,378.432 " fill="none" id="PushKind-backto-Push" style="stroke:#181818;stroke-width:1.0;stroke-dasharray:7.0,7.0;"/><polygon fill="#181818" points="678,299.722,674,308.722,678,304.722,682,308.722,678,299.722" style="stroke:#181818;stroke-width:1.0;"/></g><!--MD5=[1923dc23042d50f760dcd7a3202a0eed]
reverse link Online to Push--><g id="link_Online_Push"><path d="M577.17,302.772 C586.48,310.352 597.19,318.012 608,323.532 C619.91,329.612 626.42,323.352 637,331.532 C652.43,343.462 663.08,362.952 669.66,378.502 " fill="none" id="Online-backto-Push" style="stroke:#181818;stroke-width:1.0;stroke-dasharray:7.0,7.0;"/><polygon fill="#181818" points="573.27,299.532,577.6459,308.3553,577.1193,302.723,582.7516,302.1964,573.27,299.532" style="stroke:#181818;stroke-width:1.0;"/></g><!--MD5=[21ce40e0ff99e25a8017246b09c15345]
link Signup to TokenRes--><g id="link_Signup_TokenRes"><path d="M1372.78,299.682 C1363.63,309.412 1353.15,320.852 1344,331.532 C1332.16,345.362 1319.55,361.242 1309.3,374.462 " fill="none" id="Signup-to-TokenRes" style="stroke:#181818;stroke-width:1.0;"/><polygon fill="#181818" points="1306.2,378.482,1314.8677,373.8053,1309.2568,374.5252,1308.5369,368.9144,1306.2,378.482" style="stroke:#181818;stroke-width:1.0;"/></g><!--MD5=[67cdf4560c2478e52829e8746afc23a5]
link Signin to TokenRes--><g id="link_Signin_TokenRes"><path d="M1278.29,299.722 C1280.26,320.642 1283.13,350.942 1285.23,373.242 " fill="none" id="Signin-to-TokenRes" style="stroke:#181818;stroke-width:1.0;"/><polygon fill="#181818" points="1285.72,378.432,1288.8525,369.0946,1285.248,373.4543,1280.8882,369.8498,1285.72,378.432" style="stroke:#181818;stroke-width:1.0;"/></g><!--MD5=[f54cdea0f56dbbd6cd1bae29201c5aa2]
link Token to TokenRes--><g id="link_Token_TokenRes"><path d="M1492.67,299.592 C1482.7,308.742 1470.23,318.232 1457,323.532 C1433.63,332.892 1366.25,319.752 1344,331.532 C1326.4,340.852 1312.49,358.372 1302.93,373.672 " fill="none" id="Token-to-TokenRes" style="stroke:#181818;stroke-width:1.0;"/><polygon fill="#181818" points="1300.11,378.342,1308.1926,372.7142,1302.6993,374.0646,1301.3489,368.5714,1300.11,378.342" style="stroke:#181818;stroke-width:1.0;"/></g><!--MD5=[c6d8a409c076c7ec8d1e663b44cc6b00]
link Signout to SignoutRes--><g id="link_Signout_SignoutRes"><path d="M1652.65,189.772 C1651.76,205.892 1650.58,227.152 1649.63,244.222 " fill="none" id="Signout-to-SignoutRes" style="stroke:#181818;stroke-width:1.0;"/><polygon fill="#181818" points="1649.34,249.372,1653.8469,240.6148,1649.6252,244.3801,1645.86,240.1584,1649.34,249.372" style="stroke:#181818;stroke-width:1.0;"/></g><!--MD5=[c9221f8d0b05715b6f59a0d9674a6358]
link Ping to Pong--><g id="link_Ping_Pong"><path d="M400.81,299.722 C400.64,320.642 400.41,350.942 400.23,373.242 " fill="none" id="Ping-to-Pong" style="stroke:#181818;stroke-width:1.0;"/><polygon fill="#181818" points="400.19,378.432,404.267,369.4666,400.2329,373.4322,396.2673,369.398,400.19,378.432" style="stroke:#181818;stroke-width:1.0;"/></g><!--MD5=[e9f4c23cd80e33e708765936931d1be7]
reverse link ErrRes to Packet--><g id="link_ErrRes_Packet"><path d="M271.67,426.392 C293.9,436.052 321.31,446.552 347,452.532 C482.95,484.192 915,504.852 1053.11,510.772 " fill="none" id="ErrRes-backto-Packet" style="stroke:#181818;stroke-width:1.0;stroke-dasharray:7.0,7.0;"/><polygon fill="#181818" points="267.01,424.342,273.6521,431.614,271.5908,426.3461,276.8587,424.2847,267.01,424.342" style="stroke:#181818;stroke-width:1.0;"/></g><!--MD5=[efb43ec9f66d06d98b3441c1b2565e94]
reverse link Ping to Packet--><g id="link_Ping_Packet"><path d="M432.48,303.652 C440.39,311.982 448.25,321.572 454,331.532 C482.05,380.122 446.73,416.812 490,452.532 C533.31,488.292 922.27,506.022 1053.21,511.022 " fill="none" id="Ping-backto-Packet" style="stroke:#181818;stroke-width:1.0;stroke-dasharray:7.0,7.0;"/><polygon fill="#181818" points="428.6,299.662,432.0052,308.9034,432.0852,303.2472,437.7415,303.3271,428.6,299.662" style="stroke:#181818;stroke-width:1.0;"/></g><!--MD5=[d2f6896691d2134cd10e5f41e95f7116]
reverse link Pong to Packet--><g id="link_Pong_Packet"><path d="M418.08,432.902 C424.38,440.542 432.13,447.942 441,452.532 C548.24,508.042 925.36,512.782 1053.23,512.752 " fill="none" id="Pong-backto-Packet" style="stroke:#181818;stroke-width:1.0;stroke-dasharray:7.0,7.0;"/><polygon fill="#181818" points="414.73,428.652,417.1436,438.2005,417.8185,432.5841,423.4349,433.259,414.73,428.652" style="stroke:#181818;stroke-width:1.0;"/></g><!--MD5=[7d5bb847eb2467e368e05db184d745b4]
reverse link Push to Packet--><g id="link_Push_Packet"><path d="M720.09,419.112 C749.99,429.202 791.21,442.552 828,452.532 C906.92,473.942 1000.37,493.592 1053.47,504.232 " fill="none" id="Push-backto-Packet" style="stroke:#181818;stroke-width:1.0;stroke-dasharray:7.0,7.0;"/><polygon fill="#181818" points="715.02,417.402,722.2512,424.0885,719.7533,419.013,724.8289,416.5152,715.02,417.402" style="stroke:#181818;stroke-width:1.0;"/></g><!--MD5=[7d0f6289d2864faa5018b2a2547f0239]
reverse link Msg to Packet--><g id="link_Msg_Packet"><path d="M936.76,427.522 C950.3,435.602 965.74,444.632 980,452.532 C1003.99,465.832 1031.22,479.962 1053.27,491.172 " fill="none" id="Msg-backto-Packet" style="stroke:#181818;stroke-width:1.0;stroke-dasharray:7.0,7.0;"/><polygon fill="#181818" points="932.25,424.822,937.9213,432.8741,936.5412,427.3882,942.0272,426.0081,932.25,424.822" style="stroke:#181818;stroke-width:1.0;"/></g><!--MD5=[93e0a4c762d0866e1a0524c21071b69f]
reverse link Users to Packet--><g id="link_Users_Packet"><path d="M1139.43,304.722 C1138.15,340.192 1134.05,401.602 1121,452.532 C1117.89,464.662 1112.78,477.562 1107.98,488.272 " fill="none" id="Users-backto-Packet" style="stroke:#181818;stroke-width:1.0;stroke-dasharray:7.0,7.0;"/><polygon fill="#181818" points="1139.6,299.682,1135.294,308.5396,1139.4287,304.679,1143.2893,308.8138,1139.6,299.682" style="stroke:#181818;stroke-width:1.0;"/></g><!--MD5=[0f0c7e374577a6b80d7ec906972dfcb2]
reverse link UsersRes to Packet--><g id="link_UsersRes_Packet"><path d="M1064.53,433.482 C1071.36,450.642 1079.92,472.132 1086.38,488.372 " fill="none" id="UsersRes-backto-Packet" style="stroke:#181818;stroke-width:1.0;stroke-dasharray:7.0,7.0;"/><polygon fill="#181818" points="1062.65,428.772,1062.2421,438.6124,1064.4897,433.4212,1069.6809,435.6688,1062.65,428.772" style="stroke:#181818;stroke-width:1.0;"/></g><!--MD5=[8e1b967365a8635d76a7311c60608cd5]
reverse link Signout to Packet--><g id="link_Signout_Packet"><path d="M1704.06,183.742 C1711.61,188.682 1718.41,194.852 1723,202.532 C1750.62,248.682 1747.76,275.792 1723,323.532 C1677.19,411.872 1632.62,416.162 1540,452.532 C1400.63,507.262 1219.8,513.612 1138.68,513.392 " fill="none" id="Signout-backto-Packet" style="stroke:#181818;stroke-width:1.0;stroke-dasharray:7.0,7.0;"/><polygon fill="#181818" points="1699.79,181.122,1705.3661,189.2403,1704.0507,183.7385,1709.5525,182.4231,1699.79,181.122" style="stroke:#181818;stroke-width:1.0;"/></g><!--MD5=[1a4362b6c3e6f6b57427be0285949774]
reverse link SignoutRes to Packet--><g id="link_SignoutRes_Packet"><path d="M1626.67,303.962 C1594.78,344.192 1530.6,416.822 1458,452.532 C1351.68,504.832 1208.76,512.802 1138.55,513.262 " fill="none" id="SignoutRes-backto-Packet" style="stroke:#181818;stroke-width:1.0;stroke-dasharray:7.0,7.0;"/><polygon fill="#181818" points="1630.03,299.692,1621.3251,304.299,1626.9415,303.6241,1627.6164,309.2405,1630.03,299.692" style="stroke:#181818;stroke-width:1.0;"/></g><!--MD5=[de98084fa8d8ef6fb0d667891e5a0a0c]
reverse link Signup to Packet--><g id="link_Signup_Packet"><path d="M1402.84,304.632 C1410.1,343.422 1416.09,411.912 1380,452.532 C1348.5,487.992 1209.75,503.742 1138.53,509.602 " fill="none" id="Signup-backto-Packet" style="stroke:#181818;stroke-width:1.0;stroke-dasharray:7.0,7.0;"/><polygon fill="#181818" points="1401.86,299.592,1399.6544,309.1907,1402.8159,304.4998,1407.5068,307.6613,1401.86,299.592" style="stroke:#181818;stroke-width:1.0;"/></g><!--MD5=[c97ce849347a483dfea307b095cde309]
reverse link Signin to Packet--><g id="link_Signin_Packet"><path d="M1305.87,303.192 C1314.79,310.492 1324.89,317.892 1335,323.532 C1344.45,328.802 1351.73,322.712 1358,331.532 C1389.16,375.362 1391.51,410.472 1358,452.532 C1331.03,486.382 1205.58,502.682 1138.53,509.092 " fill="none" id="Signin-backto-Packet" style="stroke:#181818;stroke-width:1.0;stroke-dasharray:7.0,7.0;"/><polygon fill="#181818" points="1301.6,299.622,1305.9371,308.4645,1305.4353,302.8299,1311.0698,302.328,1301.6,299.622" style="stroke:#181818;stroke-width:1.0;"/></g><!--MD5=[6a651b2a22be84cc4b609ac687e107af]
reverse link Token to Packet--><g id="link_Token_Packet"><path d="M1505.25,304.472 C1490.2,344.492 1457.31,415.942 1404,452.532 C1361.39,481.782 1212.73,500.632 1138.64,508.432 " fill="none" id="Token-backto-Packet" style="stroke:#181818;stroke-width:1.0;stroke-dasharray:7.0,7.0;"/><polygon fill="#181818" points="1507,299.742,1500.1323,306.8013,1505.2695,304.433,1507.6379,309.5702,1507,299.742" style="stroke:#181818;stroke-width:1.0;"/></g><!--MD5=[cbd44b8d167880ddb4383692d6ec8555]
reverse link TokenRes to Packet--><g id="link_TokenRes_Packet"><path d="M1240.38,431.322 C1209.18,448.872 1168.75,471.612 1138.61,488.562 " fill="none" id="TokenRes-backto-Packet" style="stroke:#181818;stroke-width:1.0;stroke-dasharray:7.0,7.0;"/><polygon fill="#181818" points="1244.91,428.772,1235.1035,429.6843,1240.5487,431.2172,1239.0158,436.6624,1244.91,428.772" style="stroke:#181818;stroke-width:1.0;"/></g><!--MD5=[112fd177fe41de986421a3c01413856d]
@startuml gochat-lib-uml
package Lib {
    folder "commons" {
        [codec]
        [crypt]
        [errcode]
        [uitls]
        [post]
    }

    folder "packet.proto" {
        folder "auth (cli=>srv)" {
            [Auth]
            [Signup]
            [Signin]
            [Token]
            [Signout]

            [TokenRes]
            [SignoutRes]
        }

        folder "get users (cli=>srv)" {
            [User]
            [UsersRes]
            [Users]
        }

        folder "send message (cli<=>srv)" {
            [MsgKind]
            [Msg]
        }

        folder "push notify (cli<=srv)" {
            [PushKind]
            [Push]
            [OnlineKind]
            [Online]
        }

        folder "ping/pong (cli<=>srv)" {
            [Ping]
            [Pong]
        }

        folder "error (cli<=srv)" {
            [ErrRes]
        }

        [PackKind]
        [Packet]
    }
}

Packet .up.> PackKind
Signup .up.> Auth
Signin .up.> Auth
Token .up.> Auth

UsersRes .up.> User
Users -down-> UsersRes

Online .up.> OnlineKind

Msg .up.> MsgKind
Push .up.> PushKind
Push .up.> Online

Signup -down-> TokenRes
Signin -down-> TokenRes
Token -down-> TokenRes

Signout -down-> SignoutRes

Ping -down-> Pong

Packet .up.> ErrRes
Packet .up.> Ping
Packet .up.> Pong
Packet .up.> Push
Packet .up.> Msg
Packet .up.> Users
Packet .up.> UsersRes

Packet .up.> Signout
Packet .up.> SignoutRes
Packet .up.> Signup
Packet .up.> Signin
Packet .up.> Token
Packet .up.> TokenRes
@enduml

PlantUML version 1.2022.7(Tue Aug 23 01:01:30 CST 2022)
(GPL source distribution)
Java Runtime: OpenJDK Runtime Environment
JVM: OpenJDK 64-Bit Server VM
Default Encoding: UTF-8
Language: zh
Country: CN
--></g></svg>