<?xml version="1.0" encoding="UTF-8" standalone="no"?><svg xmlns="http://www.w3.org/2000/svg" xmlns:xlink="http://www.w3.org/1999/xlink" contentStyleType="text/css" height="829px" preserveAspectRatio="none" style="width:1278px;height:829px;background:#FFFFFF;" version="1.1" viewBox="0 0 1278 829" width="1278px" zoomAndPan="magnify"><defs/><g><!--MD5=[5cbff45808aa0b349d270201c19fb1ef]
cluster Lib--><g id="cluster_Lib"><path d="M8.5,6.532 L30.5,6.532 A3.75,3.75 0 0 1 33,9.032 L40,32.8039 L1268.5,32.8039 A2.5,2.5 0 0 1 1271,35.3039 L1271,820.032 A2.5,2.5 0 0 1 1268.5,822.532 L8.5,822.532 A2.5,2.5 0 0 1 6,820.032 L6,9.032 A2.5,2.5 0 0 1 8.5,6.532 " fill="none" style="stroke:#000000;stroke-width:1.5;"/><line style="stroke:#000000;stroke-width:1.5;" x1="6" x2="40" y1="32.8039" y2="32.8039"/><text fill="#000000" font-family="sans-serif" font-size="14" font-weight="bold" lengthAdjust="spacing" textLength="21" x="10" y="24.7719">Lib</text></g><!--MD5=[0bfb5380cccfad0eacf1ae50551cb7df]
cluster commons--><g id="cluster_commons"><path d="M905.5,100.532 L975.5,100.532 A3.75,3.75 0 0 1 978,103.032 L985,126.8039 L1244.5,126.8039 A2.5,2.5 0 0 1 1247,129.3039 L1247,313.032 A2.5,2.5 0 0 1 1244.5,315.532 L905.5,315.532 A2.5,2.5 0 0 1 903,313.032 L903,103.032 A2.5,2.5 0 0 1 905.5,100.532 " fill="none" style="stroke:#000000;stroke-width:1.5;"/><line style="stroke:#000000;stroke-width:1.5;" x1="903" x2="985" y1="126.8039" y2="126.8039"/><text fill="#000000" font-family="sans-serif" font-size="14" font-weight="bold" lengthAdjust="spacing" textLength="69" x="907" y="118.7719">commons</text></g><!--MD5=[43f17f8cff4b58b55d5ab50e8fc9ac0d]
cluster packet.proto--><g id="cluster_packet.proto"><path d="M32.5,53.532 L123.5,53.532 A3.75,3.75 0 0 1 126,56.032 L133,79.8039 L876.5,79.8039 A2.5,2.5 0 0 1 879,82.3039 L879,796.032 A2.5,2.5 0 0 1 876.5,798.532 L32.5,798.532 A2.5,2.5 0 0 1 30,796.032 L30,56.032 A2.5,2.5 0 0 1 32.5,53.532 " fill="none" style="stroke:#000000;stroke-width:1.5;"/><line style="stroke:#000000;stroke-width:1.5;" x1="30" x2="133" y1="79.8039" y2="79.8039"/><text fill="#000000" font-family="sans-serif" font-size="14" font-weight="bold" lengthAdjust="spacing" textLength="90" x="34" y="71.7719">packet.proto</text></g><!--MD5=[5a827bfe5ee405655bb59ec72ca4c7e5]
cluster auth (cli=>srv)--><g id="cluster_auth (cli=&gt;srv)"><path d="M353.5,100.532 L451.5,100.532 A3.75,3.75 0 0 1 454,103.032 L461,126.8039 L852.5,126.8039 A2.5,2.5 0 0 1 855,129.3039 L855,423.032 A2.5,2.5 0 0 1 852.5,425.532 L353.5,425.532 A2.5,2.5 0 0 1 351,423.032 L351,103.032 A2.5,2.5 0 0 1 353.5,100.532 " fill="none" style="stroke:#000000;stroke-width:1.5;"/><line style="stroke:#000000;stroke-width:1.5;" x1="351" x2="461" y1="126.8039" y2="126.8039"/><text fill="#000000" font-family="sans-serif" font-size="14" font-weight="bold" lengthAdjust="spacing" textLength="97" x="355" y="118.7719">auth (cli=&gt;srv)</text></g><!--MD5=[9b0b845df2484fd985618e6fa46ca30e]
cluster get users (cli=>srv)--><g id="cluster_get users (cli=&gt;srv)"><path d="M97.5,559.532 L225.5,559.532 A3.75,3.75 0 0 1 228,562.032 L235,585.8039 L307.5,585.8039 A2.5,2.5 0 0 1 310,588.3039 L310,772.032 A2.5,2.5 0 0 1 307.5,774.532 L97.5,774.532 A2.5,2.5 0 0 1 95,772.032 L95,562.032 A2.5,2.5 0 0 1 97.5,559.532 " fill="none" style="stroke:#000000;stroke-width:1.5;"/><line style="stroke:#000000;stroke-width:1.5;" x1="95" x2="235" y1="585.8039" y2="585.8039"/><text fill="#000000" font-family="sans-serif" font-size="14" font-weight="bold" lengthAdjust="spacing" textLength="127" x="99" y="577.7719">get users (cli=&gt;srv)</text></g><!--MD5=[e792f100ff1c175d4c31f137540e09f7]
cluster send message (cli<=>srv)--><g id="cluster_send message (cli&lt;=&gt;srv)"><path d="M672.5,449.532 L842.5,449.532 A3.75,3.75 0 0 1 845,452.032 L852,475.8039 L852.5,475.8039 A2.5,2.5 0 0 1 855,478.3039 L855,662.032 A2.5,2.5 0 0 1 852.5,664.532 L672.5,664.532 A2.5,2.5 0 0 1 670,662.032 L670,452.032 A2.5,2.5 0 0 1 672.5,449.532 " fill="none" style="stroke:#000000;stroke-width:1.5;"/><line style="stroke:#000000;stroke-width:1.5;" x1="670" x2="852" y1="475.8039" y2="475.8039"/><text fill="#000000" font-family="sans-serif" font-size="14" font-weight="bold" lengthAdjust="spacing" textLength="169" x="674" y="467.7719">send message (cli&lt;=&gt;srv)</text></g><!--MD5=[29f29f57f7ddb8e9f63078cdd2e95083]
cluster push notify (cli<=srv)--><g id="cluster_push notify (cli&lt;=srv)"><path d="M56.5,100.532 L200.5,100.532 A3.75,3.75 0 0 1 203,103.032 L210,126.8039 L308.5,126.8039 A2.5,2.5 0 0 1 311,129.3039 L311,423.032 A2.5,2.5 0 0 1 308.5,425.532 L56.5,425.532 A2.5,2.5 0 0 1 54,423.032 L54,103.032 A2.5,2.5 0 0 1 56.5,100.532 " fill="none" style="stroke:#000000;stroke-width:1.5;"/><line style="stroke:#000000;stroke-width:1.5;" x1="54" x2="210" y1="126.8039" y2="126.8039"/><text fill="#000000" font-family="sans-serif" font-size="14" font-weight="bold" lengthAdjust="spacing" textLength="143" x="58" y="118.7719">push notify (cli&lt;=srv)</text></g><!--MD5=[519faaa7fcff2bb8e05bb68228423ed4]
cluster ping/pong (cli<=>srv)--><g id="cluster_ping/pong (cli&lt;=&gt;srv)"><path d="M349.5,559.532 L493.5,559.532 A3.75,3.75 0 0 1 496,562.032 L503,585.8039 L503.5,585.8039 A2.5,2.5 0 0 1 506,588.3039 L506,772.032 A2.5,2.5 0 0 1 503.5,774.532 L349.5,774.532 A2.5,2.5 0 0 1 347,772.032 L347,562.032 A2.5,2.5 0 0 1 349.5,559.532 " fill="none" style="stroke:#000000;stroke-width:1.5;"/><line style="stroke:#000000;stroke-width:1.5;" x1="347" x2="503" y1="585.8039" y2="585.8039"/><text fill="#000000" font-family="sans-serif" font-size="14" font-weight="bold" lengthAdjust="spacing" textLength="143" x="351" y="577.7719">ping/pong (cli&lt;=&gt;srv)</text></g><!--MD5=[39509f3f5015f7b901b4e76c8db20c34]
cluster error (cli<=srv)--><g id="cluster_error (cli&lt;=srv)"><path d="M532.5,559.532 L633.5,559.532 A3.75,3.75 0 0 1 636,562.032 L643,585.8039 L643.5,585.8039 A2.5,2.5 0 0 1 646,588.3039 L646,662.032 A2.5,2.5 0 0 1 643.5,664.532 L532.5,664.532 A2.5,2.5 0 0 1 530,662.032 L530,562.032 A2.5,2.5 0 0 1 532.5,559.532 " fill="none" style="stroke:#000000;stroke-width:1.5;"/><line style="stroke:#000000;stroke-width:1.5;" x1="530" x2="643" y1="585.8039" y2="585.8039"/><text fill="#000000" font-family="sans-serif" font-size="14" font-weight="bold" lengthAdjust="spacing" textLength="100" x="534" y="577.7719">error (cli&lt;=srv)</text></g><!--MD5=[ef23eb9e0a26e42c41ea6907e9b42363]
entity codec--><g id="elem_codec"><rect fill="#F1F1F1" height="50.2719" rx="2.5" ry="2.5" style="stroke:#181818;stroke-width:0.5;" width="79" x="918.5" y="139.532"/><rect fill="#F1F1F1" height="10" style="stroke:#181818;stroke-width:0.5;" width="15" x="977.5" y="144.532"/><rect fill="#F1F1F1" height="2" style="stroke:#181818;stroke-width:0.5;" width="4" x="975.5" y="146.532"/><rect fill="#F1F1F1" height="2" style="stroke:#181818;stroke-width:0.5;" width="4" x="975.5" y="150.532"/><text fill="#000000" font-family="sans-serif" font-size="14" lengthAdjust="spacing" textLength="39" x="933.5" y="175.7719">codec</text></g><!--MD5=[cd192bd804cbc0e2dd23836b5758edf3]
entity crypt--><g id="elem_crypt"><rect fill="#F1F1F1" height="50.2719" rx="2.5" ry="2.5" style="stroke:#181818;stroke-width:0.5;" width="73" x="1032.5" y="139.532"/><rect fill="#F1F1F1" height="10" style="stroke:#181818;stroke-width:0.5;" width="15" x="1085.5" y="144.532"/><rect fill="#F1F1F1" height="2" style="stroke:#181818;stroke-width:0.5;" width="4" x="1083.5" y="146.532"/><rect fill="#F1F1F1" height="2" style="stroke:#181818;stroke-width:0.5;" width="4" x="1083.5" y="150.532"/><text fill="#000000" font-family="sans-serif" font-size="14" lengthAdjust="spacing" textLength="33" x="1047.5" y="175.7719">crypt</text></g><!--MD5=[160fb1f893cbb6be174a6c60b5902d03]
entity errcode--><g id="elem_errcode"><rect fill="#F1F1F1" height="50.2719" rx="2.5" ry="2.5" style="stroke:#181818;stroke-width:0.5;" width="90" x="1141" y="139.532"/><rect fill="#F1F1F1" height="10" style="stroke:#181818;stroke-width:0.5;" width="15" x="1211" y="144.532"/><rect fill="#F1F1F1" height="2" style="stroke:#181818;stroke-width:0.5;" width="4" x="1209" y="146.532"/><rect fill="#F1F1F1" height="2" style="stroke:#181818;stroke-width:0.5;" width="4" x="1209" y="150.532"/><text fill="#000000" font-family="sans-serif" font-size="14" lengthAdjust="spacing" textLength="50" x="1156" y="175.7719">errcode</text></g><!--MD5=[1735c7a0e202424bb7ae0484f285ab88]
entity uitls--><g id="elem_uitls"><rect fill="#F1F1F1" height="50.2719" rx="2.5" ry="2.5" style="stroke:#181818;stroke-width:0.5;" width="69" x="923.5" y="249.532"/><rect fill="#F1F1F1" height="10" style="stroke:#181818;stroke-width:0.5;" width="15" x="972.5" y="254.532"/><rect fill="#F1F1F1" height="2" style="stroke:#181818;stroke-width:0.5;" width="4" x="970.5" y="256.532"/><rect fill="#F1F1F1" height="2" style="stroke:#181818;stroke-width:0.5;" width="4" x="970.5" y="260.532"/><text fill="#000000" font-family="sans-serif" font-size="14" lengthAdjust="spacing" textLength="29" x="938.5" y="285.7719">uitls</text></g><!--MD5=[93e97847b1b330667bb0856a6855201b]
entity post--><g id="elem_post"><rect fill="#F1F1F1" height="50.2719" rx="2.5" ry="2.5" style="stroke:#181818;stroke-width:0.5;" width="69" x="1027.5" y="249.532"/><rect fill="#F1F1F1" height="10" style="stroke:#181818;stroke-width:0.5;" width="15" x="1076.5" y="254.532"/><rect fill="#F1F1F1" height="2" style="stroke:#181818;stroke-width:0.5;" width="4" x="1074.5" y="256.532"/><rect fill="#F1F1F1" height="2" style="stroke:#181818;stroke-width:0.5;" width="4" x="1074.5" y="260.532"/><text fill="#000000" font-family="sans-serif" font-size="14" lengthAdjust="spacing" textLength="29" x="1042.5" y="285.7719">post</text></g><!--MD5=[93de1bc13d026ddda01431a3a1f20085]
entity PackKind--><g id="elem_PackKind"><rect fill="#F1F1F1" height="50.2719" rx="2.5" ry="2.5" style="stroke:#181818;stroke-width:0.5;" width="103" x="330.5" y="488.532"/><rect fill="#F1F1F1" height="10" style="stroke:#181818;stroke-width:0.5;" width="15" x="413.5" y="493.532"/><rect fill="#F1F1F1" height="2" style="stroke:#181818;stroke-width:0.5;" width="4" x="411.5" y="495.532"/><rect fill="#F1F1F1" height="2" style="stroke:#181818;stroke-width:0.5;" width="4" x="411.5" y="499.532"/><text fill="#000000" font-family="sans-serif" font-size="14" lengthAdjust="spacing" textLength="63" x="345.5" y="524.7719">PackKind</text></g><!--MD5=[7c5d091f2ba4bb40a958290994bbb8d8]
entity Packet--><g id="elem_Packet"><rect fill="#F1F1F1" height="50.2719" rx="2.5" ry="2.5" style="stroke:#181818;stroke-width:0.5;" width="85" x="468.5" y="488.532"/><rect fill="#F1F1F1" height="10" style="stroke:#181818;stroke-width:0.5;" width="15" x="533.5" y="493.532"/><rect fill="#F1F1F1" height="2" style="stroke:#181818;stroke-width:0.5;" width="4" x="531.5" y="495.532"/><rect fill="#F1F1F1" height="2" style="stroke:#181818;stroke-width:0.5;" width="4" x="531.5" y="499.532"/><text fill="#000000" font-family="sans-serif" font-size="14" lengthAdjust="spacing" textLength="45" x="483.5" y="524.7719">Packet</text></g><!--MD5=[39222abbbfd087a4fdab60e627dc976f]
entity Auth--><g id="elem_Auth"><rect fill="#F1F1F1" height="50.2719" rx="2.5" ry="2.5" style="stroke:#181818;stroke-width:0.5;" width="72" x="643" y="139.532"/><rect fill="#F1F1F1" height="10" style="stroke:#181818;stroke-width:0.5;" width="15" x="695" y="144.532"/><rect fill="#F1F1F1" height="2" style="stroke:#181818;stroke-width:0.5;" width="4" x="693" y="146.532"/><rect fill="#F1F1F1" height="2" style="stroke:#181818;stroke-width:0.5;" width="4" x="693" y="150.532"/><text fill="#000000" font-family="sans-serif" font-size="14" lengthAdjust="spacing" textLength="32" x="658" y="175.7719">Auth</text></g><!--MD5=[d193f1a4c11c96be3822ab7a501decff]
entity Signup--><g id="elem_Signup"><rect fill="#F1F1F1" height="50.2719" rx="2.5" ry="2.5" style="stroke:#181818;stroke-width:0.5;" width="87" x="635.5" y="249.532"/><rect fill="#F1F1F1" height="10" style="stroke:#181818;stroke-width:0.5;" width="15" x="702.5" y="254.532"/><rect fill="#F1F1F1" height="2" style="stroke:#181818;stroke-width:0.5;" width="4" x="700.5" y="256.532"/><rect fill="#F1F1F1" height="2" style="stroke:#181818;stroke-width:0.5;" width="4" x="700.5" y="260.532"/><text fill="#000000" font-family="sans-serif" font-size="14" lengthAdjust="spacing" textLength="47" x="650.5" y="285.7719">Signup</text></g><!--MD5=[5a19745d05fc0d4064b9d4d47d79a8ef]
entity Signin--><g id="elem_Signin"><rect fill="#F1F1F1" height="50.2719" rx="2.5" ry="2.5" style="stroke:#181818;stroke-width:0.5;" width="82" x="518" y="249.532"/><rect fill="#F1F1F1" height="10" style="stroke:#181818;stroke-width:0.5;" width="15" x="580" y="254.532"/><rect fill="#F1F1F1" height="2" style="stroke:#181818;stroke-width:0.5;" width="4" x="578" y="256.532"/><rect fill="#F1F1F1" height="2" style="stroke:#181818;stroke-width:0.5;" width="4" x="578" y="260.532"/><text fill="#000000" font-family="sans-serif" font-size="14" lengthAdjust="spacing" textLength="42" x="533" y="285.7719">Signin</text></g><!--MD5=[439fd0432c25c04e35b3ecceb5911b7c]
entity Token--><g id="elem_Token"><rect fill="#F1F1F1" height="50.2719" rx="2.5" ry="2.5" style="stroke:#181818;stroke-width:0.5;" width="81" x="757.5" y="249.532"/><rect fill="#F1F1F1" height="10" style="stroke:#181818;stroke-width:0.5;" width="15" x="818.5" y="254.532"/><rect fill="#F1F1F1" height="2" style="stroke:#181818;stroke-width:0.5;" width="4" x="816.5" y="256.532"/><rect fill="#F1F1F1" height="2" style="stroke:#181818;stroke-width:0.5;" width="4" x="816.5" y="260.532"/><text fill="#000000" font-family="sans-serif" font-size="14" lengthAdjust="spacing" textLength="41" x="772.5" y="285.7719">Token</text></g><!--MD5=[982adff97a72cb516592d0315bd42b6e]
entity Signout--><g id="elem_Signout"><rect fill="#F1F1F1" height="50.2719" rx="2.5" ry="2.5" style="stroke:#181818;stroke-width:0.5;" width="91" x="373.5" y="139.532"/><rect fill="#F1F1F1" height="10" style="stroke:#181818;stroke-width:0.5;" width="15" x="444.5" y="144.532"/><rect fill="#F1F1F1" height="2" style="stroke:#181818;stroke-width:0.5;" width="4" x="442.5" y="146.532"/><rect fill="#F1F1F1" height="2" style="stroke:#181818;stroke-width:0.5;" width="4" x="442.5" y="150.532"/><text fill="#000000" font-family="sans-serif" font-size="14" lengthAdjust="spacing" textLength="51" x="388.5" y="175.7719">Signout</text></g><!--MD5=[84e63563b0c7bd13897cde62dc3979c0]
entity TokenRes--><g id="elem_TokenRes"><rect fill="#F1F1F1" height="50.2719" rx="2.5" ry="2.5" style="stroke:#181818;stroke-width:0.5;" width="105" x="606.5" y="359.532"/><rect fill="#F1F1F1" height="10" style="stroke:#181818;stroke-width:0.5;" width="15" x="691.5" y="364.532"/><rect fill="#F1F1F1" height="2" style="stroke:#181818;stroke-width:0.5;" width="4" x="689.5" y="366.532"/><rect fill="#F1F1F1" height="2" style="stroke:#181818;stroke-width:0.5;" width="4" x="689.5" y="370.532"/><text fill="#000000" font-family="sans-serif" font-size="14" lengthAdjust="spacing" textLength="65" x="621.5" y="395.7719">TokenRes</text></g><!--MD5=[1a77f79563534b952a6c3bd626252f48]
entity SignoutRes--><g id="elem_SignoutRes"><rect fill="#F1F1F1" height="50.2719" rx="2.5" ry="2.5" style="stroke:#181818;stroke-width:0.5;" width="115" x="367.5" y="249.532"/><rect fill="#F1F1F1" height="10" style="stroke:#181818;stroke-width:0.5;" width="15" x="462.5" y="254.532"/><rect fill="#F1F1F1" height="2" style="stroke:#181818;stroke-width:0.5;" width="4" x="460.5" y="256.532"/><rect fill="#F1F1F1" height="2" style="stroke:#181818;stroke-width:0.5;" width="4" x="460.5" y="260.532"/><text fill="#000000" font-family="sans-serif" font-size="14" lengthAdjust="spacing" textLength="75" x="382.5" y="285.7719">SignoutRes</text></g><!--MD5=[fee662a292a0353a69bd162820bae93b]
entity User--><g id="elem_User"><rect fill="#F1F1F1" height="50.2719" rx="2.5" ry="2.5" style="stroke:#181818;stroke-width:0.5;" width="70" x="224" y="598.532"/><rect fill="#F1F1F1" height="10" style="stroke:#181818;stroke-width:0.5;" width="15" x="274" y="603.532"/><rect fill="#F1F1F1" height="2" style="stroke:#181818;stroke-width:0.5;" width="4" x="272" y="605.532"/><rect fill="#F1F1F1" height="2" style="stroke:#181818;stroke-width:0.5;" width="4" x="272" y="609.532"/><text fill="#000000" font-family="sans-serif" font-size="14" lengthAdjust="spacing" textLength="30" x="239" y="634.7719">User</text></g><!--MD5=[a2b8134a2409aede6d5f940d4f4e4cf0]
entity UsersRes--><g id="elem_UsersRes"><rect fill="#F1F1F1" height="50.2719" rx="2.5" ry="2.5" style="stroke:#181818;stroke-width:0.5;" width="101" x="192.5" y="708.532"/><rect fill="#F1F1F1" height="10" style="stroke:#181818;stroke-width:0.5;" width="15" x="273.5" y="713.532"/><rect fill="#F1F1F1" height="2" style="stroke:#181818;stroke-width:0.5;" width="4" x="271.5" y="715.532"/><rect fill="#F1F1F1" height="2" style="stroke:#181818;stroke-width:0.5;" width="4" x="271.5" y="719.532"/><text fill="#000000" font-family="sans-serif" font-size="14" lengthAdjust="spacing" textLength="61" x="207.5" y="744.7719">UsersRes</text></g><!--MD5=[feb5939ce823acf5a8245c3205b3c7a1]
entity Users--><g id="elem_Users"><rect fill="#F1F1F1" height="50.2719" rx="2.5" ry="2.5" style="stroke:#181818;stroke-width:0.5;" width="77" x="111.5" y="598.532"/><rect fill="#F1F1F1" height="10" style="stroke:#181818;stroke-width:0.5;" width="15" x="168.5" y="603.532"/><rect fill="#F1F1F1" height="2" style="stroke:#181818;stroke-width:0.5;" width="4" x="166.5" y="605.532"/><rect fill="#F1F1F1" height="2" style="stroke:#181818;stroke-width:0.5;" width="4" x="166.5" y="609.532"/><text fill="#000000" font-family="sans-serif" font-size="14" lengthAdjust="spacing" textLength="37" x="126.5" y="634.7719">Users</text></g><!--MD5=[c41d533e981bde705dc6796ca085ef14]
entity MsgKind--><g id="elem_MsgKind"><rect fill="#F1F1F1" height="50.2719" rx="2.5" ry="2.5" style="stroke:#181818;stroke-width:0.5;" width="97" x="685.5" y="488.532"/><rect fill="#F1F1F1" height="10" style="stroke:#181818;stroke-width:0.5;" width="15" x="762.5" y="493.532"/><rect fill="#F1F1F1" height="2" style="stroke:#181818;stroke-width:0.5;" width="4" x="760.5" y="495.532"/><rect fill="#F1F1F1" height="2" style="stroke:#181818;stroke-width:0.5;" width="4" x="760.5" y="499.532"/><text fill="#000000" font-family="sans-serif" font-size="14" lengthAdjust="spacing" textLength="57" x="700.5" y="524.7719">MsgKind</text></g><!--MD5=[d6a3a86b25255705de85e8c850a2e57b]
entity Msg--><g id="elem_Msg"><rect fill="#F1F1F1" height="50.2719" rx="2.5" ry="2.5" style="stroke:#181818;stroke-width:0.5;" width="66" x="693" y="598.532"/><rect fill="#F1F1F1" height="10" style="stroke:#181818;stroke-width:0.5;" width="15" x="739" y="603.532"/><rect fill="#F1F1F1" height="2" style="stroke:#181818;stroke-width:0.5;" width="4" x="737" y="605.532"/><rect fill="#F1F1F1" height="2" style="stroke:#181818;stroke-width:0.5;" width="4" x="737" y="609.532"/><text fill="#000000" font-family="sans-serif" font-size="14" lengthAdjust="spacing" textLength="26" x="708" y="634.7719">Msg</text></g><!--MD5=[3b5f033733f75575c20e288de050e033]
entity PushKind--><g id="elem_PushKind"><rect fill="#F1F1F1" height="50.2719" rx="2.5" ry="2.5" style="stroke:#181818;stroke-width:0.5;" width="105" x="189.5" y="249.532"/><rect fill="#F1F1F1" height="10" style="stroke:#181818;stroke-width:0.5;" width="15" x="274.5" y="254.532"/><rect fill="#F1F1F1" height="2" style="stroke:#181818;stroke-width:0.5;" width="4" x="272.5" y="256.532"/><rect fill="#F1F1F1" height="2" style="stroke:#181818;stroke-width:0.5;" width="4" x="272.5" y="260.532"/><text fill="#000000" font-family="sans-serif" font-size="14" lengthAdjust="spacing" textLength="65" x="204.5" y="285.7719">PushKind</text></g><!--MD5=[36c1109342872520b87a1413d9987e37]
entity Push--><g id="elem_Push"><rect fill="#F1F1F1" height="50.2719" rx="2.5" ry="2.5" style="stroke:#181818;stroke-width:0.5;" width="74" x="205" y="359.532"/><rect fill="#F1F1F1" height="10" style="stroke:#181818;stroke-width:0.5;" width="15" x="259" y="364.532"/><rect fill="#F1F1F1" height="2" style="stroke:#181818;stroke-width:0.5;" width="4" x="257" y="366.532"/><rect fill="#F1F1F1" height="2" style="stroke:#181818;stroke-width:0.5;" width="4" x="257" y="370.532"/><text fill="#000000" font-family="sans-serif" font-size="14" lengthAdjust="spacing" textLength="34" x="220" y="395.7719">Push</text></g><!--MD5=[9dc6a2c019c8b1dd4b0ae677a7566966]
entity OnlineKind--><g id="elem_OnlineKind"><rect fill="#F1F1F1" height="50.2719" rx="2.5" ry="2.5" style="stroke:#181818;stroke-width:0.5;" width="115" x="70.5" y="139.532"/><rect fill="#F1F1F1" height="10" style="stroke:#181818;stroke-width:0.5;" width="15" x="165.5" y="144.532"/><rect fill="#F1F1F1" height="2" style="stroke:#181818;stroke-width:0.5;" width="4" x="163.5" y="146.532"/><rect fill="#F1F1F1" height="2" style="stroke:#181818;stroke-width:0.5;" width="4" x="163.5" y="150.532"/><text fill="#000000" font-family="sans-serif" font-size="14" lengthAdjust="spacing" textLength="75" x="85.5" y="175.7719">OnlineKind</text></g><!--MD5=[5df312b635d04dc028bf787187c3728f]
entity Online--><g id="elem_Online"><rect fill="#F1F1F1" height="50.2719" rx="2.5" ry="2.5" style="stroke:#181818;stroke-width:0.5;" width="84" x="70" y="249.532"/><rect fill="#F1F1F1" height="10" style="stroke:#181818;stroke-width:0.5;" width="15" x="134" y="254.532"/><rect fill="#F1F1F1" height="2" style="stroke:#181818;stroke-width:0.5;" width="4" x="132" y="256.532"/><rect fill="#F1F1F1" height="2" style="stroke:#181818;stroke-width:0.5;" width="4" x="132" y="260.532"/><text fill="#000000" font-family="sans-serif" font-size="14" lengthAdjust="spacing" textLength="44" x="85" y="285.7719">Online</text></g><!--MD5=[834f1d2ba3ce9fc1d3f642edfaab9576]
entity Ping--><g id="elem_Ping"><rect fill="#F1F1F1" height="50.2719" rx="2.5" ry="2.5" style="stroke:#181818;stroke-width:0.5;" width="70" x="405" y="598.532"/><rect fill="#F1F1F1" height="10" style="stroke:#181818;stroke-width:0.5;" width="15" x="455" y="603.532"/><rect fill="#F1F1F1" height="2" style="stroke:#181818;stroke-width:0.5;" width="4" x="453" y="605.532"/><rect fill="#F1F1F1" height="2" style="stroke:#181818;stroke-width:0.5;" width="4" x="453" y="609.532"/><text fill="#000000" font-family="sans-serif" font-size="14" lengthAdjust="spacing" textLength="30" x="420" y="634.7719">Ping</text></g><!--MD5=[25b4a8d7209e1d085dd2520f98da7402]
entity Pong--><g id="elem_Pong"><rect fill="#F1F1F1" height="50.2719" rx="2.5" ry="2.5" style="stroke:#181818;stroke-width:0.5;" width="74" x="404" y="708.532"/><rect fill="#F1F1F1" height="10" style="stroke:#181818;stroke-width:0.5;" width="15" x="458" y="713.532"/><rect fill="#F1F1F1" height="2" style="stroke:#181818;stroke-width:0.5;" width="4" x="456" y="715.532"/><rect fill="#F1F1F1" height="2" style="stroke:#181818;stroke-width:0.5;" width="4" x="456" y="719.532"/><text fill="#000000" font-family="sans-serif" font-size="14" lengthAdjust="spacing" textLength="34" x="419" y="744.7719">Pong</text></g><!--MD5=[81ec31ef5b6a5bf0db8a7044fffa0108]
entity ErrRes--><g id="elem_ErrRes"><rect fill="#F1F1F1" height="50.2719" rx="2.5" ry="2.5" style="stroke:#181818;stroke-width:0.5;" width="82" x="547" y="598.532"/><rect fill="#F1F1F1" height="10" style="stroke:#181818;stroke-width:0.5;" width="15" x="609" y="603.532"/><rect fill="#F1F1F1" height="2" style="stroke:#181818;stroke-width:0.5;" width="4" x="607" y="605.532"/><rect fill="#F1F1F1" height="2" style="stroke:#181818;stroke-width:0.5;" width="4" x="607" y="609.532"/><text fill="#000000" font-family="sans-serif" font-size="14" lengthAdjust="spacing" textLength="42" x="562" y="634.7719">ErrRes</text></g><!--MD5=[3cf19212bf186cf49bd7e22617d47306]
reverse link PackKind to Packet--><g id="link_PackKind_Packet"><path d="M438.81,513.532 C448.67,513.532 458.53,513.532 468.4,513.532 " fill="none" id="PackKind-backto-Packet" style="stroke:#181818;stroke-width:1.0;stroke-dasharray:7.0,7.0;"/><polygon fill="#181818" points="433.65,513.532,442.65,517.532,438.65,513.532,442.65,509.532,433.65,513.532" style="stroke:#181818;stroke-width:1.0;"/></g><!--MD5=[69dd3d049fc76cf0ee04328e533854b9]
reverse link Auth to Signup--><g id="link_Auth_Signup"><path d="M679,194.922 C679,212.012 679,233.272 679,249.372 " fill="none" id="Auth-backto-Signup" style="stroke:#181818;stroke-width:1.0;stroke-dasharray:7.0,7.0;"/><polygon fill="#181818" points="679,189.772,675,198.772,679,194.772,683,198.772,679,189.772" style="stroke:#181818;stroke-width:1.0;"/></g><!--MD5=[2b6e48af47b160dd9a01d28d7b879d35]
reverse link Auth to Signin--><g id="link_Auth_Signin"><path d="M648.29,193.172 C628.99,210.542 604.35,232.722 585.84,249.372 " fill="none" id="Auth-backto-Signin" style="stroke:#181818;stroke-width:1.0;stroke-dasharray:7.0,7.0;"/><polygon fill="#181818" points="652.07,189.772,642.7045,192.8195,648.3535,193.1168,648.0562,198.7658,652.07,189.772" style="stroke:#181818;stroke-width:1.0;"/></g><!--MD5=[e0a0edcd7cdf9e45fa604f95d9b90bb3]
reverse link Auth to Token--><g id="link_Auth_Token"><path d="M709.46,193.172 C728.59,210.542 753.03,232.722 771.38,249.372 " fill="none" id="Auth-backto-Token" style="stroke:#181818;stroke-width:1.0;stroke-dasharray:7.0,7.0;"/><polygon fill="#181818" points="705.71,189.772,709.6874,198.782,709.4129,193.1318,715.0631,192.8573,705.71,189.772" style="stroke:#181818;stroke-width:1.0;"/></g><!--MD5=[fd1ac7f980415262c70c021941bc36e4]
reverse link User to UsersRes--><g id="link_User_UsersRes"><path d="M254.65,653.922 C252.11,671.012 248.96,692.272 246.58,708.372 " fill="none" id="User-backto-UsersRes" style="stroke:#181818;stroke-width:1.0;stroke-dasharray:7.0,7.0;"/><polygon fill="#181818" points="255.41,648.772,250.1403,657.0925,254.6809,653.7185,258.0548,658.2591,255.41,648.772" style="stroke:#181818;stroke-width:1.0;"/></g><!--MD5=[5fa6a9ecae4a566c6c5361ffc199899d]
link Users to UsersRes--><g id="link_Users_UsersRes"><path d="M170.87,648.772 C185.11,665.302 204.01,687.252 218.89,704.542 " fill="none" id="Users-to-UsersRes" style="stroke:#181818;stroke-width:1.0;"/><polygon fill="#181818" points="222.2,708.372,219.3419,698.9469,218.9308,704.5888,213.2889,704.1777,222.2,708.372" style="stroke:#181818;stroke-width:1.0;"/></g><!--MD5=[1a9f7bd421f6887d1bbed8a86657e8f6]
reverse link OnlineKind to Online--><g id="link_OnlineKind_Online"><path d="M123.65,194.922 C121.11,212.012 117.96,233.272 115.58,249.372 " fill="none" id="OnlineKind-backto-Online" style="stroke:#181818;stroke-width:1.0;stroke-dasharray:7.0,7.0;"/><polygon fill="#181818" points="124.41,189.772,119.1403,198.0925,123.6809,194.7185,127.0548,199.2591,124.41,189.772" style="stroke:#181818;stroke-width:1.0;"/></g><!--MD5=[78fd312883fafecb4e9a4808d890b4ac]
reverse link MsgKind to Msg--><g id="link_MsgKind_Msg"><path d="M731.82,543.922 C730.56,561.012 728.98,582.272 727.79,598.372 " fill="none" id="MsgKind-backto-Msg" style="stroke:#181818;stroke-width:1.0;stroke-dasharray:7.0,7.0;"/><polygon fill="#181818" points="732.2,538.772,727.5424,547.4499,731.8285,543.7582,735.5203,548.0443,732.2,538.772" style="stroke:#181818;stroke-width:1.0;"/></g><!--MD5=[7bb3a56b7ee37ed7f9f69c70fd1cc488]
reverse link PushKind to Push--><g id="link_PushKind_Push"><path d="M242,304.922 C242,322.012 242,343.272 242,359.372 " fill="none" id="PushKind-backto-Push" style="stroke:#181818;stroke-width:1.0;stroke-dasharray:7.0,7.0;"/><polygon fill="#181818" points="242,299.772,238,308.772,242,304.772,246,308.772,242,299.772" style="stroke:#181818;stroke-width:1.0;"/></g><!--MD5=[1923dc23042d50f760dcd7a3202a0eed]
reverse link Online to Push--><g id="link_Online_Push"><path d="M145.27,303.172 C166.17,320.542 192.87,342.722 212.92,359.372 " fill="none" id="Online-backto-Push" style="stroke:#181818;stroke-width:1.0;stroke-dasharray:7.0,7.0;"/><polygon fill="#181818" points="141.17,299.772,145.5265,308.6049,145.0123,302.9715,150.6457,302.4573,141.17,299.772" style="stroke:#181818;stroke-width:1.0;"/></g><!--MD5=[21ce40e0ff99e25a8017246b09c15345]
link Signup to TokenRes--><g id="link_Signup_TokenRes"><path d="M674.51,299.772 C671.53,315.892 667.59,337.152 664.43,354.222 " fill="none" id="Signup-to-TokenRes" style="stroke:#181818;stroke-width:1.0;"/><polygon fill="#181818" points="663.47,359.372,669.0487,351.2554,664.3845,354.4563,661.1837,349.7922,663.47,359.372" style="stroke:#181818;stroke-width:1.0;"/></g><!--MD5=[67cdf4560c2478e52829e8746afc23a5]
link Signin to TokenRes--><g id="link_Signin_TokenRes"><path d="M581.44,299.772 C596.75,316.302 617.08,338.252 633.08,355.542 " fill="none" id="Signin-to-TokenRes" style="stroke:#181818;stroke-width:1.0;"/><polygon fill="#181818" points="636.63,359.372,633.4692,350.0441,633.2404,355.6963,627.5882,355.4675,636.63,359.372" style="stroke:#181818;stroke-width:1.0;"/></g><!--MD5=[f54cdea0f56dbbd6cd1bae29201c5aa2]
link Token to TokenRes--><g id="link_Token_TokenRes"><path d="M769.34,299.772 C760.06,307.472 749.67,315.952 740,323.532 C726.02,334.482 710.39,346.182 696.62,356.312 " fill="none" id="Token-to-TokenRes" style="stroke:#181818;stroke-width:1.0;"/><polygon fill="#181818" points="692.41,359.412,702.0321,357.3109,696.4407,356.4533,697.2982,350.8618,692.41,359.412" style="stroke:#181818;stroke-width:1.0;"/></g><!--MD5=[c6d8a409c076c7ec8d1e663b44cc6b00]
link Signout to SignoutRes--><g id="link_Signout_SignoutRes"><path d="M420.35,189.772 C421.24,205.892 422.42,227.152 423.37,244.222 " fill="none" id="Signout-to-SignoutRes" style="stroke:#181818;stroke-width:1.0;"/><polygon fill="#181818" points="423.66,249.372,427.14,240.1584,423.3748,244.3801,419.1531,240.6148,423.66,249.372" style="stroke:#181818;stroke-width:1.0;"/></g><!--MD5=[c9221f8d0b05715b6f59a0d9674a6358]
link Ping to Pong--><g id="link_Ping_Pong"><path d="M440.22,648.772 C440.37,664.892 440.57,686.152 440.73,703.222 " fill="none" id="Ping-to-Pong" style="stroke:#181818;stroke-width:1.0;"/><polygon fill="#181818" points="440.78,708.372,444.7027,699.338,440.7371,703.3722,436.703,699.4066,440.78,708.372" style="stroke:#181818;stroke-width:1.0;"/></g><!--MD5=[5ce07a8faf8fd8926d30c476d8c2969f]
link Packet to ErrRes--><g id="link_Packet_ErrRes"><path d="M532.87,538.792 C536.36,542.952 539.86,547.302 543,551.532 C553.01,565.002 563.11,580.702 571.19,593.902 " fill="none" id="Packet-to-ErrRes" style="stroke:#181818;stroke-width:1.0;stroke-dasharray:7.0,7.0;"/><polygon fill="#181818" points="573.86,598.282,572.5973,588.5144,571.2603,594.011,565.7637,592.674,573.86,598.282" style="stroke:#181818;stroke-width:1.0;"/></g><!--MD5=[db2fe79a530fa368b0ef076708532aea]
link Packet to Ping--><g id="link_Packet_Ping"><path d="M488.9,538.622 C485.43,542.812 482.01,547.212 479,551.532 C469.77,564.802 460.97,580.452 454.08,593.692 " fill="none" id="Packet-to-Ping" style="stroke:#181818;stroke-width:1.0;stroke-dasharray:7.0,7.0;"/><polygon fill="#181818" points="451.62,598.442,459.2942,592.2689,453.9074,593.9959,452.1804,588.6091,451.62,598.442" style="stroke:#181818;stroke-width:1.0;"/></g><!--MD5=[4caad6a7bc6cfecde2f7acb070889465]
link Packet to Pong--><g id="link_Packet_Pong"><path d="M512.31,538.672 C513.13,570.662 511.36,628.232 492,672.532 C486.97,684.042 478.98,695.022 470.81,704.362 " fill="none" id="Packet-to-Pong" style="stroke:#181818;stroke-width:1.0;stroke-dasharray:7.0,7.0;"/><polygon fill="#181818" points="467.3,708.262,476.2939,704.2482,470.6448,704.5455,470.3475,698.8965,467.3,708.262" style="stroke:#181818;stroke-width:1.0;"/></g><!--MD5=[7d5bb847eb2467e368e05db184d745b4]
reverse link Push to Packet--><g id="link_Push_Packet"><path d="M259.78,413.932 C266.11,421.652 273.95,429.092 283,433.532 C316.56,449.982 417.48,424.992 451,441.532 C471.41,451.602 487.54,472.112 497.91,488.522 " fill="none" id="Push-backto-Packet" style="stroke:#181818;stroke-width:1.0;stroke-dasharray:7.0,7.0;"/><polygon fill="#181818" points="256.42,409.632,258.7952,419.1901,259.4927,413.5764,265.1064,414.2739,256.42,409.632" style="stroke:#181818;stroke-width:1.0;"/></g><!--MD5=[085d5cbd4f71c40523a0c68079441606]
link Packet to Msg--><g id="link_Packet_Msg"><path d="M553.59,521.212 C580.89,526.692 616.43,536.122 645,551.532 C665.64,562.662 685.49,579.922 700.37,594.632 " fill="none" id="Packet-to-Msg" style="stroke:#181818;stroke-width:1.0;stroke-dasharray:7.0,7.0;"/><polygon fill="#181818" points="704.05,598.312,700.5145,589.1196,700.5145,594.7764,694.8576,594.7764,704.05,598.312" style="stroke:#181818;stroke-width:1.0;"/></g><!--MD5=[d4af47e56c4f1487267e9587b081fe12]
link Packet to Users--><g id="link_Packet_Users"><path d="M468.27,533.572 C462.56,535.542 456.7,537.282 451,538.532 C397.75,550.262 254.41,526.452 206,551.532 C188.31,560.692 174.4,578.212 164.87,593.562 " fill="none" id="Packet-to-Users" style="stroke:#181818;stroke-width:1.0;stroke-dasharray:7.0,7.0;"/><polygon fill="#181818" points="162.05,598.242,170.1104,592.5825,164.6225,593.9545,163.2505,588.4666,162.05,598.242" style="stroke:#181818;stroke-width:1.0;"/></g><!--MD5=[e994905fdd78400a5143afb02e68cf27]
link Packet to UsersRes--><g id="link_Packet_UsersRes"><path d="M468.39,532.642 C462.6,534.792 456.69,536.822 451,538.532 C423.62,546.762 411.54,535.302 388,551.532 C335.53,587.722 352.42,624.082 311,672.532 C301.16,684.042 289.11,695.372 277.91,705.032 " fill="none" id="Packet-to-UsersRes" style="stroke:#181818;stroke-width:1.0;stroke-dasharray:7.0,7.0;"/><polygon fill="#181818" points="273.83,708.522,283.2726,705.7224,277.6333,705.2763,278.0794,699.637,273.83,708.522" style="stroke:#181818;stroke-width:1.0;"/></g><!--MD5=[8e1b967365a8635d76a7311c60608cd5]
reverse link Signout to Packet--><g id="link_Signout_Packet"><path d="M387.68,193.472 C373.23,208.472 357.62,228.242 350,249.532 C338.91,280.492 338.6,292.682 350,323.532 C373.93,388.282 406.28,388.942 451,441.532 C464.28,457.142 479.15,474.742 490.76,488.512 " fill="none" id="Signout-backto-Packet" style="stroke:#181818;stroke-width:1.0;stroke-dasharray:7.0,7.0;"/><polygon fill="#181818" points="391.32,189.762,382.1565,193.3718,387.8132,193.326,387.859,198.9827,391.32,189.762" style="stroke:#181818;stroke-width:1.0;"/></g><!--MD5=[1a4362b6c3e6f6b57427be0285949774]
reverse link SignoutRes to Packet--><g id="link_SignoutRes_Packet"><path d="M435.53,304.542 C452.68,351.812 486.34,444.562 502.26,488.442 " fill="none" id="SignoutRes-backto-Packet" style="stroke:#181818;stroke-width:1.0;stroke-dasharray:7.0,7.0;"/><polygon fill="#181818" points="433.72,299.562,433.0461,309.3878,435.4333,304.2593,440.5618,306.6465,433.72,299.562" style="stroke:#181818;stroke-width:1.0;"/></g><!--MD5=[de98084fa8d8ef6fb0d667891e5a0a0c]
reverse link Signup to Packet--><g id="link_Signup_Packet"><path d="M644.05,303.092 C626.12,318.412 604.78,338.582 589,359.532 C557.69,401.082 532.83,457.082 520.16,488.522 " fill="none" id="Signup-backto-Packet" style="stroke:#181818;stroke-width:1.0;stroke-dasharray:7.0,7.0;"/><polygon fill="#181818" points="648.06,299.702,638.6062,302.4635,644.2436,302.9323,643.7748,308.5697,648.06,299.702" style="stroke:#181818;stroke-width:1.0;"/></g><!--MD5=[c97ce849347a483dfea307b095cde309]
reverse link Signin to Packet--><g id="link_Signin_Packet"><path d="M553.12,304.542 C543.55,351.812 524.77,444.562 515.88,488.442 " fill="none" id="Signin-backto-Packet" style="stroke:#181818;stroke-width:1.0;stroke-dasharray:7.0,7.0;"/><polygon fill="#181818" points="554.13,299.562,548.4111,307.5804,553.1302,304.461,556.2496,309.1801,554.13,299.562" style="stroke:#181818;stroke-width:1.0;"/></g><!--MD5=[6a651b2a22be84cc4b609ac687e107af]
reverse link Token to Packet--><g id="link_Token_Packet"><path d="M793.97,304.752 C787.3,341.142 770.32,402.322 729,433.532 C707.88,449.482 695.45,434.282 670,441.532 C629,453.202 584.93,473.562 553.61,489.492 " fill="none" id="Token-backto-Packet" style="stroke:#181818;stroke-width:1.0;stroke-dasharray:7.0,7.0;"/><polygon fill="#181818" points="794.88,299.572,789.3931,307.7508,794.0209,304.4976,797.2741,309.1254,794.88,299.572" style="stroke:#181818;stroke-width:1.0;"/></g><!--MD5=[cbd44b8d167880ddb4383692d6ec8555]
reverse link TokenRes to Packet--><g id="link_TokenRes_Packet"><path d="M626.71,413.242 C600.54,435.692 564.05,467.012 539.08,488.432 " fill="none" id="TokenRes-backto-Packet" style="stroke:#181818;stroke-width:1.0;stroke-dasharray:7.0,7.0;"/><polygon fill="#181818" points="630.81,409.722,621.3735,412.5421,627.0137,412.9759,626.5799,418.6161,630.81,409.722" style="stroke:#181818;stroke-width:1.0;"/></g><!--MD5=[16c0792245cbd8cf82378768328b0857]
@startuml gochat-lib-uml
package Lib {
    folder "commons" {
        [codec]
        [crypt]
        [errcode]
        [uitls]
        [post]
    }

    folder "packet.proto" {
        folder "auth (cli=>srv)" {
            [Auth]
            [Signup]
            [Signin]
            [Token]
            [Signout]

            [TokenRes]
            [SignoutRes]
        }

        folder "get users (cli=>srv)" {
            [User]
            [UsersRes]
            [Users]
        }

        folder "send message (cli<=>srv)" {
            [MsgKind]
            [Msg]
        }

        folder "push notify (cli<=srv)" {
            [PushKind]
            [Push]
            [OnlineKind]
            [Online]
        }

        folder "ping/pong (cli<=>srv)" {
            [Ping]
            [Pong]
        }

        folder "error (cli<=srv)" {
            [ErrRes]
        }

        [PackKind]
        [Packet]
    }
}

Packet .left.> PackKind
Signup .up.> Auth
Signin .up.> Auth
Token .up.> Auth

UsersRes .up.> User
Users -down-> UsersRes

Online .up.> OnlineKind

Msg .up.> MsgKind
Push .up.> PushKind
Push .up.> Online

Signup -down-> TokenRes
Signin -down-> TokenRes
Token -down-> TokenRes

Signout -down-> SignoutRes

Ping -down-> Pong

Packet .down.> ErrRes
Packet .down.> Ping
Packet .down.> Pong
Packet .up.> Push

Packet .down.> Msg
Packet .down.> Users
Packet .down.> UsersRes

Packet .up.> Signout
Packet .up.> SignoutRes
Packet .up.> Signup
Packet .up.> Signin
Packet .up.> Token
Packet .up.> TokenRes
@enduml

PlantUML version 1.2022.7(Tue Aug 23 01:01:30 CST 2022)
(GPL source distribution)
Java Runtime: OpenJDK Runtime Environment
JVM: OpenJDK 64-Bit Server VM
Default Encoding: UTF-8
Language: zh
Country: CN
--></g></svg>